<svg xmlns="http://www.w3.org/2000/svg" enable-background="new 0 0 64 64" viewBox="0 0 64 64" id="network-communication"><path d="M24.27,5.33c-0.07,0-0.14-0.01-0.2-0.04l-3.2-1.44c-0.12-0.05-0.21-0.15-0.26-0.28s-0.04-0.26,0.02-0.38l1.37-2.9
				c0.12-0.25,0.41-0.35,0.65-0.24C22.89,0.16,23,0.46,22.88,0.7l-1.15,2.45l2.75,1.23c0.25,0.11,0.36,0.4,0.25,0.65
				C24.64,5.22,24.46,5.33,24.27,5.33z"></path><path d="M21.07 3.89c-.18 0-.35-.1-.44-.27-.13-.24-.03-.54.21-.66 6.98-3.59 14.06-3.67 21.04-.22.24.12.34.42.22.66-.12.25-.42.34-.66.22-6.69-3.31-13.47-3.24-20.16.21C21.22 3.87 21.14 3.89 21.07 3.89zM3.2 43.32c-.08 0-.16-.02-.24-.06l-2.7-1.5c-.24-.13-.32-.43-.19-.67.13-.24.43-.32.67-.19l1.49.83c-2.68-7.03-2.63-13.66.13-19.73.11-.25.4-.36.65-.24.25.11.36.4.24.65-2.81 6.18-2.68 12.99.4 20.24.08.19.03.42-.12.56C3.44 43.28 3.32 43.32 3.2 43.32z"></path><path d="M3.2 43.32c-.07 0-.13-.01-.2-.04-.25-.11-.36-.4-.25-.65l1.32-2.99c.11-.25.4-.36.65-.25.25.11.36.4.25.65l-1.32 2.99C3.57 43.21 3.39 43.32 3.2 43.32zM59.34 24.78c-.05 0-.1-.01-.15-.02-.26-.08-.4-.36-.32-.62l1.05-3.21c.04-.13.14-.24.27-.3.13-.06.28-.05.4.01l3.12 1.47c.25.12.35.41.24.66-.12.25-.41.35-.65.24l-2.61-1.23-.87 2.67C59.74 24.65 59.55 24.78 59.34 24.78z"></path><path d="M60.99 42.36c-.07 0-.14-.01-.21-.05-.25-.12-.35-.41-.24-.65 3.03-6.43 2.83-13.28-.6-20.37-.12-.24-.02-.54.23-.66.25-.12.54-.02.66.23 3.56 7.36 3.76 14.5.6 21.21C61.35 42.26 61.17 42.36 60.99 42.36zM32.17 63.73c-3.37 0-6.78-.77-10.2-2.31-.25-.11-.36-.4-.25-.65.11-.25.4-.36.65-.25 6.47 2.91 12.89 2.96 19.1.13l-2.08-.83c-.25-.1-.38-.39-.27-.64.1-.25.39-.38.64-.27l3.12 1.25c.18.07.3.24.31.44.01.19-.1.37-.27.46C39.39 62.84 35.8 63.73 32.17 63.73z"></path><path d="M41.62 64c-.06 0-.11-.01-.17-.03-.26-.09-.39-.38-.29-.63l1.07-2.89c.09-.25.38-.38.63-.29.26.09.39.38.29.63l-1.07 2.89C42.01 63.88 41.82 64 41.62 64zM11.35 21.77c-5.57 0-10.11-4.53-10.11-10.11 0-5.57 4.53-10.11 10.11-10.11 5.57 0 10.11 4.53 10.11 10.11C21.46 17.23 16.92 21.77 11.35 21.77zM11.35 2.54c-5.03 0-9.12 4.09-9.12 9.12 0 5.03 4.09 9.12 9.12 9.12s9.12-4.09 9.12-9.12C20.47 6.63 16.38 2.54 11.35 2.54zM52.57 21.77c-5.57 0-10.11-4.53-10.11-10.11 0-5.57 4.53-10.11 10.11-10.11 5.57 0 10.11 4.53 10.11 10.11C62.68 17.23 58.15 21.77 52.57 21.77zM52.57 2.54c-5.03 0-9.12 4.09-9.12 9.12 0 5.03 4.09 9.12 9.12 9.12s9.12-4.09 9.12-9.12C61.7 6.63 57.6 2.54 52.57 2.54zM11.35 62.89c-5.57 0-10.11-4.53-10.11-10.11s4.53-10.11 10.11-10.11c5.57 0 10.11 4.53 10.11 10.11S16.92 62.89 11.35 62.89zM11.35 43.66c-5.03 0-9.12 4.09-9.12 9.12s4.09 9.12 9.12 9.12 9.12-4.09 9.12-9.12S16.38 43.66 11.35 43.66zM52.57 62.89c-5.57 0-10.11-4.53-10.11-10.11S47 42.67 52.57 42.67c5.57 0 10.11 4.53 10.11 10.11S58.15 62.89 52.57 62.89zM52.57 43.66c-5.03 0-9.12 4.09-9.12 9.12s4.09 9.12 9.12 9.12 9.12-4.09 9.12-9.12S57.6 43.66 52.57 43.66z"></path><path d="M7.4,59.3c-0.27,0-0.49-0.22-0.49-0.49l0-1.88c0-0.29-0.02-0.58-0.05-0.87c0,0,0-0.01,0-0.01
					c-0.05-0.46-0.14-0.91-0.26-1.33l-0.37-1.33c-0.76-2.62-0.29-4.63,1.4-5.97c0.93-0.74,2.16-1.15,3.46-1.15h4.79
					c0.27,0,0.49,0.22,0.49,0.49c0,0.98-0.51,1.8-1.33,2.21c-0.33,0.16-0.7,0.25-1.07,0.25c-0.25,0-0.48,0.08-0.65,0.21
					c-0.37,0.3-0.55,0.73-0.57,1.33c-0.01,0.35-0.12,0.68-0.33,0.96c-0.57,0.78-1.12,1.39-1.92,1.8c-0.2,0.1-0.32,0.31-0.32,0.55
					v0.78c0,0.91-0.74,1.65-1.65,1.65H7.88c0.01,0.14,0.01,0.28,0.01,0.42l0,1.89C7.9,59.07,7.68,59.3,7.4,59.3L7.4,59.3z
					 M7.77,55.51h0.76c0.37,0,0.67-0.3,0.67-0.67v-0.78c0-0.6,0.34-1.16,0.86-1.42c0.63-0.32,1.07-0.82,1.57-1.51
					c0.09-0.12,0.13-0.25,0.13-0.39c0.02-0.9,0.34-1.59,0.94-2.08c0.35-0.28,0.8-0.43,1.26-0.43c0.22,0,0.44-0.05,0.63-0.15
					c0.35-0.17,0.61-0.48,0.72-0.84h-4.23c-1.08,0-2.09,0.33-2.85,0.94c-1.37,1.09-1.72,2.7-1.07,4.93l0.37,1.34
					C7.64,54.79,7.72,55.14,7.77,55.51z"></path><path d="M11.53 59.3H7.4c-.27 0-.49-.22-.49-.49s.22-.49.49-.49h3.65c.1-.68.68-1.21 1.39-1.21h1.63c.23 0 .41-.18.41-.41V54.9c0-.58.47-1.04 1.04-1.04h.15c.05 0 .1-.03.13-.07.03-.05.03-.1.01-.14l-.66-1.39c-.03-.07-.05-.14-.05-.22.01-1.2-.04-2.54-.65-3.17-.19-.2-.18-.51.01-.7.2-.19.51-.18.7.01.85.87.93 2.38.93 3.74l.62 1.28c.17.35.15.75-.05 1.07-.2.34-.57.55-.98.55h-.15l-.06 1.85c0 .77-.63 1.4-1.4 1.4h-1.63c-.23 0-.42.19-.42.42v.3C12.03 59.08 11.81 59.3 11.53 59.3zM7.4 18.18c-.27 0-.49-.22-.49-.49l0-1.88c0-.29-.02-.58-.05-.87 0 0 0-.01 0-.01C6.8 14.47 6.72 14.02 6.6 13.6l-.37-1.33c-.76-2.62-.29-4.63 1.4-5.97.93-.74 2.16-1.15 3.46-1.15h4.79c.27 0 .49.22.49.49 0 .98-.51 1.8-1.33 2.21-.33.16-.7.25-1.07.25-.25 0-.48.08-.65.21-.37.3-.55.73-.57 1.33-.01.35-.12.68-.33.96-.57.78-1.11 1.39-1.92 1.8-.2.1-.32.31-.32.55v.78c0 .91-.74 1.65-1.65 1.65H7.88c.01.14.01.28.01.42l0 1.89C7.9 17.96 7.68 18.18 7.4 18.18L7.4 18.18zM7.77 14.39h.76c.37 0 .67-.3.67-.67v-.78c0-.61.33-1.16.86-1.42.63-.32 1.07-.82 1.57-1.51.09-.12.13-.25.13-.39.02-.9.34-1.59.94-2.08.35-.28.8-.43 1.26-.43.22 0 .44-.05.63-.15.35-.18.61-.48.72-.84h-4.23c-1.08 0-2.09.33-2.85.94C6.87 8.15 6.52 9.76 7.17 12l.37 1.34C7.64 13.67 7.72 14.03 7.77 14.39z"></path><path d="M11.53 18.18H7.4c-.27 0-.49-.22-.49-.49s.22-.49.49-.49h3.65c.1-.68.68-1.21 1.39-1.21h1.63c.23 0 .41-.18.41-.41v-1.79c0-.58.47-1.04 1.04-1.04h.15c.05 0 .1-.03.13-.07.03-.05.03-.1.01-.14l-.66-1.39c-.03-.07-.05-.14-.05-.22.01-1.2-.04-2.54-.65-3.17-.19-.2-.18-.51.01-.7.2-.19.51-.18.7.01.85.87.93 2.38.93 3.74l.62 1.28c.17.34.15.75-.05 1.07-.2.34-.57.55-.98.55h-.15l-.06 1.85c0 .77-.63 1.4-1.4 1.4h-1.63c-.23 0-.42.19-.42.42v.3C12.03 17.96 11.81 18.18 11.53 18.18zM56.52 59.3L56.52 59.3c-.27 0-.49-.22-.49-.49l0-1.88c0-.14.01-.29.01-.43h-.65c-.91 0-1.65-.74-1.65-1.65v-.78c0-.23-.13-.45-.32-.54-.81-.42-1.35-1.02-1.92-1.81-.2-.27-.32-.61-.32-.96-.01-.59-.2-1.03-.57-1.33-.17-.13-.4-.21-.65-.21-.38 0-.74-.09-1.07-.25-.82-.41-1.33-1.23-1.33-2.15 0-.27.22-.56.49-.56h4.79c1.3 0 2.53.41 3.46 1.15 1.69 1.35 2.16 3.36 1.4 5.98l-.37 1.33c-.12.42-.2.87-.26 1.33 0 0 0 .01 0 .01-.03.28-.05.58-.05.87l0 1.87C57.01 59.08 56.79 59.3 56.52 59.3zM48.61 47.25c.12.37.37.67.71.84.2.1.41.15.63.15.47 0 .91.15 1.26.42.61.49.92 1.19.94 2.08 0 .15.05.28.13.39.51.7.95 1.19 1.58 1.52.52.26.86.82.86 1.42v.78c0 .37.3.67.67.67h.76c.06-.37.13-.72.23-1.06l.37-1.33c.65-2.24.3-3.85-1.06-4.94-.76-.6-1.77-.94-2.85-.94H48.61z"></path><path d="M56.52 59.3h-4.13c-.27 0-.49-.22-.49-.49v-.3c0-.23-.19-.42-.42-.42h-1.63c-.77 0-1.4-.63-1.4-1.4V54.9l-.21-.06c-.4 0-.78-.21-.98-.56-.19-.32-.21-.72-.05-1.07l.62-1.29c0-1.37.08-2.87.93-3.74.19-.19.5-.2.7-.01.2.19.2.5.01.7-.61.63-.66 1.97-.65 3.17 0 .08-.02.15-.05.22l-.66 1.39c-.02.05-.02.1 0 .14.03.05.08.08.13.08h.15c.57 0 1.04.47 1.04 1.04v1.79c0 .23.19.41.42.41h1.63c.71 0 1.3.53 1.39 1.21h3.65c.27 0 .49.22.49.49S56.79 59.3 56.52 59.3zM56.52 18.18L56.52 18.18c-.27 0-.49-.22-.49-.49l0-1.88c0-.14.01-.29.01-.43h-.65c-.91 0-1.65-.74-1.65-1.65v-.78c0-.23-.13-.45-.32-.55-.81-.42-1.35-1.02-1.92-1.81-.2-.27-.32-.61-.32-.96-.01-.59-.2-1.03-.57-1.33-.17-.13-.4-.21-.65-.21-.38 0-.74-.09-1.07-.25-.82-.41-1.33-1.23-1.33-2.15 0-.27.22-.56.49-.56h4.79c1.3 0 2.53.41 3.46 1.15 1.69 1.35 2.16 3.36 1.4 5.98l-.37 1.33c-.12.42-.21.87-.26 1.33 0 0 0 .01 0 .01-.03.28-.05.58-.05.87l0 1.87C57.01 17.96 56.79 18.18 56.52 18.18zM48.61 6.13c.12.37.37.67.71.84.2.1.41.15.63.15.47 0 .91.15 1.26.42.61.49.92 1.19.94 2.08 0 .15.05.28.13.39.51.7.95 1.19 1.58 1.52.52.26.86.82.86 1.42v.78c0 .37.3.67.67.67h.76c.06-.37.13-.72.23-1.06L56.75 12c.65-2.24.3-3.85-1.06-4.94-.76-.6-1.77-.94-2.85-.94H48.61z"></path><path d="M56.52,18.18h-4.13c-0.27,0-0.49-0.22-0.49-0.49v-0.3c0-0.23-0.19-0.42-0.42-0.42h-1.63c-0.77,0-1.4-0.63-1.4-1.4v-1.79
					l-0.21-0.06c-0.4,0-0.78-0.21-0.98-0.56c-0.19-0.32-0.21-0.72-0.05-1.07l0.62-1.28c0-1.37,0.08-2.87,0.93-3.74
					c0.19-0.19,0.5-0.2,0.7-0.01c0.2,0.19,0.2,0.5,0.01,0.7c-0.61,0.63-0.66,1.97-0.65,3.17c0,0.07-0.02,0.15-0.05,0.22l-0.66,1.39
					c-0.02,0.05-0.02,0.1,0,0.14c0.03,0.05,0.08,0.08,0.13,0.08h0.15c0.57,0,1.04,0.47,1.04,1.04v1.79c0,0.23,0.19,0.41,0.42,0.41
					h1.63c0.71,0,1.3,0.53,1.39,1.21h3.65c0.27,0,0.49,0.22,0.49,0.49S56.79,18.18,56.52,18.18z"></path><g><path d="M23.71 45.01c-.06 0-.11-.01-.17-.03-.25-.09-.38-.38-.29-.63.48-1.3.14-2.46-1.04-3.54-.59-.53-.81-1.35-.55-2.09l.26-.74c.27-.78 1-1.3 1.82-1.3h1.09c.84 0 1.6-.42 2.01-1.11.83-1.42.74-3.5-.21-4.85-.39-.56-1.12-.8-1.83-.61l-.71.2c-.71.25-1.61-.02-2.2-.68-.55-.62-.7-1.43-.37-2.1.22-.47.33-.86.33-1.22 0-.5-.14-.93-.42-1.29-.27-.36-.97-.6-1.44-.51l-.72.15c-.26.05-.53-.12-.58-.38-.05-.27.12-.53.38-.58l.72-.15c.85-.18 1.92.2 2.42.87.41.54.62 1.17.62 1.89 0 .51-.14 1.03-.43 1.64-.23.47.11.9.22 1.02.27.31.75.55 1.17.4l.74-.21c1.1-.3 2.26.1 2.89 1 1.16 1.64 1.27 4.18.25 5.91-.58.98-1.67 1.59-2.85 1.59h-1.09c-.4 0-.76.26-.89.64l-.26.74c-.13.36-.02.76.28 1.03 1.49 1.36 1.93 2.91 1.3 4.61C24.1 44.89 23.91 45.01 23.71 45.01zM33.56 47.44c-.01 0-.02 0-.04 0-.27-.02-.47-.25-.46-.53.07-1.01.35-1.98.83-2.88.59-1.12.83-2.38.69-3.63l-.05-.47c-.02-.26-.04-.5-.04-.74 0-1.93.34-4.58 3.25-5.28.66-.16 1.39-.18 2.18-.08 1.57.22 2.59.09 3.04-.38.3-.31.38-.84.24-1.57-.87-3.78 2.22-5.71 2.49-5.87.19-.12.45-.1.61.07.19.19.2.5 0 .69-.03.03-.07.06-.11.08-.11.07-2.76 1.64-2.03 4.82.21 1.08.04 1.89-.49 2.45-.7.74-1.93.95-3.88.68-.67-.09-1.29-.07-1.82.06-1.75.42-2.49 1.71-2.49 4.32 0 .21.02.43.04.64l.05.46c.16 1.45-.12 2.9-.8 4.2-.42.78-.66 1.61-.72 2.49C34.03 47.24 33.82 47.44 33.56 47.44zM35.61 26.26c-.69 0-1.39-.08-2.1-.25-.84-.19-1.6-.75-2.08-1.54l-.71-1.14c-.22-.36-.36-.73-.43-1.11-.14-.84-.75-1.35-1.22-1.62-.61-.35-1.09-.9-1.41-1.58l-.53-1.17c-.11-.25 0-.54.24-.65.25-.11.54 0 .65.24l.53 1.17c.23.5.58.89 1.01 1.14.66.38 1.49 1.08 1.7 2.3.05.25.15.51.3.77l.71 1.14c.34.56.87.96 1.46 1.1.97.23 1.92.28 2.82.16.54-.07 1.08-.38 1.48-.87.52-.63 1.23-1.06 2.02-1.21l3.79-.73c.27-.05.53.12.58.39.05.27-.12.52-.39.58l-3.79.73c-.56.1-1.07.41-1.44.87-.56.69-1.31 1.12-2.12 1.22C36.33 26.23 35.97 26.26 35.61 26.26z"></path><path d="M32,47.52c-8.55,0-15.51-6.96-15.51-15.51S23.45,16.49,32,16.49S47.51,23.45,47.51,32S40.55,47.52,32,47.52z M32,17.47
				c-8.01,0-14.53,6.52-14.53,14.53c0,8.01,6.52,14.53,14.53,14.53S46.53,40.01,46.53,32C46.53,23.99,40.01,17.47,32,17.47z"></path></g></svg>